<?xml version="1.0" encoding="utf-8"?>
<!-- Generator: Adobe Illustrator 19.2.1, SVG Export Plug-In . SVG Version: 6.00 Build 0)  -->
<svg version="1.1" id="Layer_1" xmlns="http://www.w3.org/2000/svg" xmlns:xlink="http://www.w3.org/1999/xlink" x="0px" y="0px"
	 viewBox="0 0 936.9 227.8" style="enable-background:new 0 0 936.9 227.8;" xml:space="preserve">
<style type="text/css">
	.st0{fill:#FFFFFF;}
</style>
<g>
	<path class="st0" d="M104.9,0h61.7v152c0,56.3-36.8,79.1-82.2,79.1S0,208.3,0,151.7V0h61.7v153.9c0,14,4.1,25.1,21.6,25.1
		c19,0,21.6-12,21.6-25.4L104.9,0L104.9,0z"/>
	<path class="st0" d="M352.1,227.8l-44.6-87.2c-8.5-16.6-16-37.4-16-37.4h-0.7c0,0,0.7,21.8,0.7,40.4v84.3h-58V0h63.2l40.5,78.1
		c8.6,16.3,17.8,39.1,17.8,39.1h0.7c0,0-0.7-23.4-0.7-42.6V0.1h58.4v227.8L352.1,227.8L352.1,227.8z"/>
	<rect x="480.4" class="st0" width="61.7" height="227.8"/>
	<polygon class="st0" points="636.1,227.8 636.1,52 597.8,52 597.8,0 736.5,0 736.5,52 698.2,52 698.2,227.8 	"/>
	<polygon class="st0" points="792.3,227.8 792.3,0 936.9,0 936.9,49.4 854,49.4 854,93.1 923.1,93.1 923.1,140.6 854,140.6 
		854,178.3 936.9,178.3 936.9,227.8 	"/>
</g>
</svg>
